<svg xmlns="http://www.w3.org/2000/svg" viewBox="0 0 780 1234" width="780" height="1234"><defs><style type="text/css">@import url('https://fonts.googleapis.com/css?family=Roboto+Mono:400|Roboto:400,&amp;subset=cyrillic,cyrillic-ext,greek,greek-ext,latin-ext')</style></defs><g transform="translate(5,5)"><g><g><g transform="translate(275, 136)"><path d="M24.5 34 L110 34 L195.5 34 C197.5 34 199 35.5 199 37.5 L199 68 L199 98.5 C199 100.5 197.5 102 195.5 102 L110 102 L24.5 102 C22.5 102 21 100.5 21 98.5 L21 68 L21 37.5 C21 35.5 22.5 34 24.5 34 Z" fill="#ffffff" stroke="#4D9EF6" stroke-width="2"/><g transform="translate(36, 49)"><text font-size="14" font-family="Roboto,sans-serif" x="74" y="14" text-anchor="middle" fill="#52565f">User Selects</text><text font-size="14" font-family="Roboto,sans-serif" x="74" y="34" text-anchor="middle" fill="#52565f">Case Study</text></g></g><g transform="translate(275, 272)"><path d="M42.5 34 L110 34 L196 34 A3 3 0 0 1 198.5 37 L189.75 68 L180.5 100 A3 3 0 0 1 177.5 102 L110 102 L24 102 A3 3 0 0 1 21.5 99 L30.25 68 L39.5 36 A3 3 0 0 1 42.5 34 Z" fill="#ffffff" stroke="#4d9ef6" stroke-width="2"/><g transform="translate(36, 49)"><text font-size="14" font-family="Roboto,sans-serif" x="74" y="14" text-anchor="middle" fill="#52565f">Input </text><text font-size="14" font-family="Roboto,sans-serif" x="74" y="34" text-anchor="middle" fill="#52565f">Module 1 Data</text></g></g><g transform="translate(275, 476)"><path d="M24.5 34 L110 34 L195.5 34 C197.5 34 199 35.5 199 37.5 L199 68 L199 98.5 C199 100.5 197.5 102 195.5 102 L110 102 L24.5 102 C22.5 102 21 100.5 21 98.5 L21 68 L21 37.5 C21 35.5 22.5 34 24.5 34 Z" fill="#ffffff" stroke="#4d9ef6" stroke-width="2"/><g transform="translate(36, 49)"><text font-size="14" font-family="Roboto,sans-serif" x="74" y="14" text-anchor="middle" fill="#52565f">M Value Output</text><text font-size="14" font-family="Roboto,sans-serif" x="74" y="34" text-anchor="middle" fill="#52565f">&amp; Visualization</text></g></g><g transform="translate(0, 340)"><path d="M65.5 44.5 L108 23 A4.340425531914893 4.340425531914893 0 0 1 112 23 L154.5 44.5 L197 66 A2.2921348314606744 2.2921348314606744 0 0 1 197 70 L154.5 91.5 L112 113 A4.340425531914893 4.340425531914893 0 0 1 108 113 L65.5 91.5 L23 70 A2.2921348314606744 2.2921348314606744 0 0 1 23 66 Z" fill="#ffffff" stroke="#4d9ef6" stroke-width="2"/><g transform="translate(65.5, 44.5)"><text font-size="14" font-family="Roboto,sans-serif" x="44.5" y="28.5" text-anchor="middle" fill="#52565f">Input Valid?</text></g></g><g transform="translate(275, 0)"><path d="M55 34 L110 34 L165 34 C184 34 199 49 199 68 L199 68 L199 68 C199 87 184 102 165 102 L110 102 L55 102 C36 102 21 87 21 68 L21 68 L21 68 C21 49 36 34 55 34 Z" fill="#ffffff" stroke="#848DEA" stroke-width="2"/><g transform="translate(40, 49)"><text font-size="14" font-family="Roboto,sans-serif" x="70" y="24" text-anchor="middle" fill="#52565f">Run pyPCGA</text></g></g><g transform="translate(275, 612)"><path d="M42.5 34 L110 34 L196 34 A3 3 0 0 1 198.5 37 L189.75 68 L180.5 100 A3 3 0 0 1 177.5 102 L110 102 L24 102 A3 3 0 0 1 21.5 99 L30.25 68 L39.5 36 A3 3 0 0 1 42.5 34 Z" fill="#ffffff" stroke="#4d9ef6" stroke-width="2"/><g transform="translate(36, 49)"><text font-size="14" font-family="Roboto,sans-serif" x="74" y="14" text-anchor="middle" fill="#52565f">Input</text><text font-size="14" font-family="Roboto,sans-serif" x="74" y="34" text-anchor="middle" fill="#52565f">Module 2, 3, 4 Data</text></g></g><g transform="translate(0, 680)"><path d="M65.5 44.5 L108 23 A4.340425531914893 4.340425531914893 0 0 1 112 23 L154.5 44.5 L197 66 A2.2921348314606744 2.2921348314606744 0 0 1 197 70 L154.5 91.5 L112 113 A4.340425531914893 4.340425531914893 0 0 1 108 113 L65.5 91.5 L23 70 A2.2921348314606744 2.2921348314606744 0 0 1 23 66 Z" fill="#ffffff" stroke="#4d9ef6" stroke-width="2"/><g transform="translate(65.5, 44.5)"><text font-size="14" font-family="Roboto,sans-serif" x="44.5" y="28.5" text-anchor="middle" fill="#52565f">Input Valid?</text></g></g><g transform="translate(275, 816)"><path d="M24.5 34 L110 34 L195.5 34 C197.5 34 199 35.5 199 37.5 L199 68 L199 98.5 C199 100.5 197.5 102 195.5 102 L110 102 L24.5 102 C22.5 102 21 100.5 21 98.5 L21 68 L21 37.5 C21 35.5 22.5 34 24.5 34 Z" fill="#ffffff" stroke="#4d9ef6" stroke-width="2"/><g transform="translate(36, 49)"><text font-size="14" font-family="Roboto,sans-serif" x="74" y="24" text-anchor="middle" fill="#52565f">Execution</text></g></g><g transform="translate(275, 952)"><path d="M24.5 34 L110 34 L195.5 34 C197.5 34 199 35.5 199 37.5 L199 68 L199 98.5 C199 100.5 197.5 102 195.5 102 L110 102 L24.5 102 C22.5 102 21 100.5 21 98.5 L21 68 L21 37.5 C21 35.5 22.5 34 24.5 34 Z" fill="#ffffff" stroke="#4d9ef6" stroke-width="2"/><g transform="translate(36, 49)"><text font-size="14" font-family="Roboto,sans-serif" x="74" y="14" text-anchor="middle" fill="#52565f">Final Values Output</text><text font-size="14" font-family="Roboto,sans-serif" x="74" y="34" text-anchor="middle" fill="#52565f">&amp; Visualization</text></g></g><g transform="translate(550, 952)"><path d="M65.5 44.5 L108 23 A4.340425531914893 4.340425531914893 0 0 1 112 23 L154.5 44.5 L197 66 A2.2921348314606744 2.2921348314606744 0 0 1 197 70 L154.5 91.5 L112 113 A4.340425531914893 4.340425531914893 0 0 1 108 113 L65.5 91.5 L23 70 A2.2921348314606744 2.2921348314606744 0 0 1 23 66 Z" fill="#ffffff" stroke="#4d9ef6" stroke-width="2"/><g transform="translate(65.5, 44.5)"><text font-size="14" font-family="Roboto,sans-serif" x="44.5" y="28.5" text-anchor="middle" fill="#52565f">Restart</text></g></g><g transform="translate(0, 952)"><path d="M65.5 44.5 L108 23 A4.340425531914893 4.340425531914893 0 0 1 112 23 L154.5 44.5 L197 66 A2.2921348314606744 2.2921348314606744 0 0 1 197 70 L154.5 91.5 L112 113 A4.340425531914893 4.340425531914893 0 0 1 108 113 L65.5 91.5 L23 70 A2.2921348314606744 2.2921348314606744 0 0 1 23 66 Z" fill="#ffffff" stroke="#4d9ef6" stroke-width="2"/><g transform="translate(65.5, 44.5)"><text font-size="14" font-family="Roboto,sans-serif" x="44.5" y="28.5" text-anchor="middle" fill="#52565f">Export Results</text></g></g><g transform="translate(0, 1088)"><path d="M24.5 34 L110 34 L195.5 34 C197.5 34 199 35.5 199 37.5 L199 68 L199 98.5 C199 100.5 197.5 102 195.5 102 L110 102 L24.5 102 C22.5 102 21 100.5 21 98.5 L21 68 L21 37.5 C21 35.5 22.5 34 24.5 34 Z" fill="#ffffff" stroke="#4d9ef6" stroke-width="2"/><g transform="translate(36, 49)"><text font-size="14" font-family="Roboto,sans-serif" x="74" y="24" text-anchor="middle" fill="#52565f">Results Saved</text></g></g><g transform="translate(275, 1088)"><path d="M55 34 L110 34 L165 34 C184 34 199 49 199 68 L199 68 L199 68 C199 87 184 102 165 102 L110 102 L55 102 C36 102 21 87 21 68 L21 68 L21 68 C21 49 36 34 55 34 Z" fill="#ffffff" stroke="#848DEA" stroke-width="2"/><g transform="translate(40, 49)"><text font-size="14" font-family="Roboto,sans-serif" x="70" y="24" text-anchor="middle" fill="#52565f">End</text></g></g></g><g><g><path fill="none" stroke="#4D9EF6" stroke-width="2" stroke-dasharray="0px 0px" d="M 385,239L 385,272L 385,272L 385,303"/><path transform="translate( 388, 241 ) rotate( 180 )" d="M3 6C4.65685 6 6 4.65685 6 3C6 1.34315 4.65685 0 3 0C1.34315 0 0 1.34315 0 3C0 4.65685 1.34315 6 3 6Z" fill="#4D9EF6"/><path transform="translate( 391, 305 ) rotate( 540 )" d="M5.22123 0.365167L0.258049 6.22653C-0.327404 6.91793 0.147757 8 1.03682 8H10.9632C11.8522 8 12.3274 6.91794 11.742 6.22653L6.77877 0.365167C6.36649 -0.121722 5.63351 -0.121723 5.22123 0.365167Z" fill="#4D9EF6"/></g><g><path fill="none" stroke="#4d9ef6" stroke-width="2" stroke-dasharray="0px 0px" d="M 304.25,340L 275,340L 120,340Q110,340 110,350L 110,359.5"/><path transform="translate( 302.25, 343 ) rotate( 270 )" d="M3 6C4.65685 6 6 4.65685 6 3C6 1.34315 4.65685 0 3 0C1.34315 0 0 1.34315 0 3C0 4.65685 1.34315 6 3 6Z" fill="#4d9ef6"/><path transform="translate( 116, 361.5 ) rotate( 540 )" d="M5.22123 0.365167L0.258049 6.22653C-0.327404 6.91793 0.147757 8 1.03682 8H10.9632C11.8522 8 12.3274 6.91794 11.742 6.22653L6.77877 0.365167C6.36649 -0.121722 5.63351 -0.121723 5.22123 0.365167Z" fill="#4d9ef6"/></g><g><path fill="none" stroke="#4d9ef6" stroke-width="2" stroke-dasharray="0px 0px" d="M 385,579L 385,612L 385,612L 385,643"/><path transform="translate( 388, 581 ) rotate( 180 )" d="M3 6C4.65685 6 6 4.65685 6 3C6 1.34315 4.65685 0 3 0C1.34315 0 0 1.34315 0 3C0 4.65685 1.34315 6 3 6Z" fill="#4d9ef6"/><path transform="translate( 391, 645 ) rotate( 540 )" d="M5.22123 0.365167L0.258049 6.22653C-0.327404 6.91793 0.147757 8 1.03682 8H10.9632C11.8522 8 12.3274 6.91794 11.742 6.22653L6.77877 0.365167C6.36649 -0.121722 5.63351 -0.121723 5.22123 0.365167Z" fill="#4d9ef6"/></g><g><path fill="none" stroke="#4D9EF6" stroke-width="2" stroke-dasharray="0px 0px" d="M 110,454.5L 110,466Q110,476 120,476L 375,476Q385,476 385,486L 385,507"/><path transform="translate( 113, 456.5 ) rotate( 180 )" d="M3 6C4.65685 6 6 4.65685 6 3C6 1.34315 4.65685 0 3 0C1.34315 0 0 1.34315 0 3C0 4.65685 1.34315 6 3 6Z" fill="#4D9EF6"/><path transform="translate( 391, 509 ) rotate( 540 )" d="M5.22123 0.365167L0.258049 6.22653C-0.327404 6.91793 0.147757 8 1.03682 8H10.9632C11.8522 8 12.3274 6.91794 11.742 6.22653L6.77877 0.365167C6.36649 -0.121722 5.63351 -0.121723 5.22123 0.365167Z" fill="#4D9EF6"/></g><g><path fill="none" stroke="#4d9ef6" stroke-width="2" stroke-dasharray="0px 0px" d="M 199,408L 220,408L 485,408Q495,408 495,398L 495,350Q495,340 485,340L 467.75,340"/><path transform="translate( 201, 405 ) rotate( 450 )" d="M3 6C4.65685 6 6 4.65685 6 3C6 1.34315 4.65685 0 3 0C1.34315 0 0 1.34315 0 3C0 4.65685 1.34315 6 3 6Z" fill="#4d9ef6"/><path transform="translate( 465.75, 346 ) rotate( 630 )" d="M5.22123 0.365167L0.258049 6.22653C-0.327404 6.91793 0.147757 8 1.03682 8H10.9632C11.8522 8 12.3274 6.91794 11.742 6.22653L6.77877 0.365167C6.36649 -0.121722 5.63351 -0.121723 5.22123 0.365167Z" fill="#4d9ef6"/></g><g><path fill="none" stroke="#4D9EF6" stroke-width="2" stroke-dasharray="0px 0px" d="M 385,109L 385,136L 385,136L 385,167"/><path transform="translate( 392, 111 ) rotate( 180 )" d="M6.34003 0.275664C6.70452 -0.0918881 7.29548 -0.0918881 7.65997 0.275664L13.7266 6.39331C14.0911 6.76086 14.0911 7.35678 13.7266 7.72434C13.3621 8.09189 12.7712 8.09189 12.4067 7.72434L7 2.2722L1.5933 7.72434C1.22881 8.09189 0.637856 8.09189 0.273367 7.72434C-0.0911224 7.35678 -0.0911224 6.76086 0.273367 6.39331L6.34003 0.275664Z" fill="#4D9EF6"/><path transform="translate( 391, 169 ) rotate( 540 )" d="M5.22123 0.365167L0.258049 6.22653C-0.327404 6.91793 0.147757 8 1.03682 8H10.9632C11.8522 8 12.3274 6.91794 11.742 6.22653L6.77877 0.365167C6.36649 -0.121722 5.63351 -0.121723 5.22123 0.365167Z" fill="#4D9EF6"/></g><g><path fill="none" stroke="#4d9ef6" stroke-width="2" stroke-dasharray="0px 0px" d="M 304.25,680L 275,680L 120,680Q110,680 110,690L 110,699.5"/><path transform="translate( 302.25, 683 ) rotate( 270 )" d="M3 6C4.65685 6 6 4.65685 6 3C6 1.34315 4.65685 0 3 0C1.34315 0 0 1.34315 0 3C0 4.65685 1.34315 6 3 6Z" fill="#4d9ef6"/><path transform="translate( 116, 701.5 ) rotate( 540 )" d="M5.22123 0.365167L0.258049 6.22653C-0.327404 6.91793 0.147757 8 1.03682 8H10.9632C11.8522 8 12.3274 6.91794 11.742 6.22653L6.77877 0.365167C6.36649 -0.121722 5.63351 -0.121723 5.22123 0.365167Z" fill="#4d9ef6"/></g><g><path fill="none" stroke="#4d9ef6" stroke-width="2" stroke-dasharray="0px 0px" d="M 199,748L 220,748L 485,748Q495,748 495,738L 495,690Q495,680 485,680L 467.75,680"/><path transform="translate( 201, 745 ) rotate( 450 )" d="M3 6C4.65685 6 6 4.65685 6 3C6 1.34315 4.65685 0 3 0C1.34315 0 0 1.34315 0 3C0 4.65685 1.34315 6 3 6Z" fill="#4d9ef6"/><path transform="translate( 465.75, 686 ) rotate( 630 )" d="M5.22123 0.365167L0.258049 6.22653C-0.327404 6.91793 0.147757 8 1.03682 8H10.9632C11.8522 8 12.3274 6.91794 11.742 6.22653L6.77877 0.365167C6.36649 -0.121722 5.63351 -0.121723 5.22123 0.365167Z" fill="#4d9ef6"/></g><g><path fill="none" stroke="#4d9ef6" stroke-width="2" stroke-dasharray="0px 0px" d="M 110,794.5L 110,806Q110,816 120,816L 375,816Q385,816 385,826L 385,847"/><path transform="translate( 113, 796.5 ) rotate( 180 )" d="M3 6C4.65685 6 6 4.65685 6 3C6 1.34315 4.65685 0 3 0C1.34315 0 0 1.34315 0 3C0 4.65685 1.34315 6 3 6Z" fill="#4d9ef6"/><path transform="translate( 391, 849 ) rotate( 540 )" d="M5.22123 0.365167L0.258049 6.22653C-0.327404 6.91793 0.147757 8 1.03682 8H10.9632C11.8522 8 12.3274 6.91794 11.742 6.22653L6.77877 0.365167C6.36649 -0.121722 5.63351 -0.121723 5.22123 0.365167Z" fill="#4d9ef6"/><g transform="translate( 111.04468944971552, 816 )"><circle r="13" cx="0" cy="0" fill="#4d9ef6"/><g transform="translate( -12, -12 )"><svg width="24" height="24" fill="none" viewBox="0 0 24 24" id="svgSk0lmzvj6cs" xmlns="http://www.w3.org/2000/svg">
        <g>
            <path d="M12 21a9 9 0 1 0 0-18 9 9 0 0 0 0 18z" fill="#55D45B"/>
            <path fill-rule="evenodd" clip-rule="evenodd" d="M17.707 9.707L11.5 15.914l-4.207-4.207 1.414-1.414 2.793 2.793 4.793-4.793 1.414 1.414z" fill="#fff"/>
        </g>
    <desc>Created with Snap</desc><defs/></svg></g></g></g><g><path fill="none" stroke="#4d9ef6" stroke-width="2" stroke-dasharray="0px 0px" d="M 385,919L 385,952L 385,952L 385,983"/><path transform="translate( 388, 921 ) rotate( 180 )" d="M3 6C4.65685 6 6 4.65685 6 3C6 1.34315 4.65685 0 3 0C1.34315 0 0 1.34315 0 3C0 4.65685 1.34315 6 3 6Z" fill="#4d9ef6"/><path transform="translate( 391, 985 ) rotate( 540 )" d="M5.22123 0.365167L0.258049 6.22653C-0.327404 6.91793 0.147757 8 1.03682 8H10.9632C11.8522 8 12.3274 6.91794 11.742 6.22653L6.77877 0.365167C6.36649 -0.121722 5.63351 -0.121723 5.22123 0.365167Z" fill="#4d9ef6"/></g><g><path fill="none" stroke="#4d9ef6" stroke-width="2" stroke-dasharray="0px 0px" d="M 475,1020L 495,1020L 550,1020L 569,1020"/><path transform="translate( 477, 1017 ) rotate( 450 )" d="M3 6C4.65685 6 6 4.65685 6 3C6 1.34315 4.65685 0 3 0C1.34315 0 0 1.34315 0 3C0 4.65685 1.34315 6 3 6Z" fill="#4d9ef6"/><path transform="translate( 571, 1014 ) rotate( 450 )" d="M5.22123 0.365167L0.258049 6.22653C-0.327404 6.91793 0.147757 8 1.03682 8H10.9632C11.8522 8 12.3274 6.91794 11.742 6.22653L6.77877 0.365167C6.36649 -0.121722 5.63351 -0.121723 5.22123 0.365167Z" fill="#4d9ef6"/></g><g><path fill="none" stroke="#4d9ef6" stroke-width="2" stroke-dasharray="0px 0px" d="M 295,1020L 275,1020L 220,1020L 201,1020"/><path transform="translate( 293, 1023 ) rotate( 270 )" d="M3 6C4.65685 6 6 4.65685 6 3C6 1.34315 4.65685 0 3 0C1.34315 0 0 1.34315 0 3C0 4.65685 1.34315 6 3 6Z" fill="#4d9ef6"/><path transform="translate( 199, 1026 ) rotate( 630 )" d="M5.22123 0.365167L0.258049 6.22653C-0.327404 6.91793 0.147757 8 1.03682 8H10.9632C11.8522 8 12.3274 6.91794 11.742 6.22653L6.77877 0.365167C6.36649 -0.121722 5.63351 -0.121723 5.22123 0.365167Z" fill="#4d9ef6"/></g><g><path fill="none" stroke="#4d9ef6" stroke-width="2" stroke-dasharray="0px 0px" d="M 385,1055L 385,1088L 385,1088L 385,1119"/><path transform="translate( 388, 1057 ) rotate( 180 )" d="M3 6C4.65685 6 6 4.65685 6 3C6 1.34315 4.65685 0 3 0C1.34315 0 0 1.34315 0 3C0 4.65685 1.34315 6 3 6Z" fill="#4d9ef6"/><path transform="translate( 391, 1121 ) rotate( 540 )" d="M5.22123 0.365167L0.258049 6.22653C-0.327404 6.91793 0.147757 8 1.03682 8H10.9632C11.8522 8 12.3274 6.91794 11.742 6.22653L6.77877 0.365167C6.36649 -0.121722 5.63351 -0.121723 5.22123 0.365167Z" fill="#4d9ef6"/></g><g><path fill="none" stroke="#4d9ef6" stroke-width="2" stroke-dasharray="0px 0px" d="M 660,973.5L 660,952L 660,350Q660,340 650,340L 495,340L 467.75,340"/><path transform="translate( 657, 971.5 ) rotate( 360 )" d="M3 6C4.65685 6 6 4.65685 6 3C6 1.34315 4.65685 0 3 0C1.34315 0 0 1.34315 0 3C0 4.65685 1.34315 6 3 6Z" fill="#4d9ef6"/><path transform="translate( 465.75, 347 ) rotate( 630 )" d="M6.34003 0.275664C6.70452 -0.0918881 7.29548 -0.0918881 7.65997 0.275664L13.7266 6.39331C14.0911 6.76086 14.0911 7.35678 13.7266 7.72434C13.3621 8.09189 12.7712 8.09189 12.4067 7.72434L7 2.2722L1.5933 7.72434C1.22881 8.09189 0.637856 8.09189 0.273367 7.72434C-0.0911224 7.35678 -0.0911224 6.76086 0.273367 6.39331L6.34003 0.275664Z" fill="#4d9ef6"/></g><g><path fill="none" stroke="#4d9ef6" stroke-width="2" stroke-dasharray="0px 0px" d="M 110,1066.5L 110,1088L 110,1088L 110,1119"/><path transform="translate( 113, 1068.5 ) rotate( 180 )" d="M3 6C4.65685 6 6 4.65685 6 3C6 1.34315 4.65685 0 3 0C1.34315 0 0 1.34315 0 3C0 4.65685 1.34315 6 3 6Z" fill="#4d9ef6"/><path transform="translate( 116, 1121 ) rotate( 540 )" d="M5.22123 0.365167L0.258049 6.22653C-0.327404 6.91793 0.147757 8 1.03682 8H10.9632C11.8522 8 12.3274 6.91794 11.742 6.22653L6.77877 0.365167C6.36649 -0.121722 5.63351 -0.121723 5.22123 0.365167Z" fill="#4d9ef6"/></g><g><path fill="none" stroke="#4d9ef6" stroke-width="2" stroke-dasharray="0px 0px" d="M 200,1156L 220,1156L 275,1156L 293,1156"/><path transform="translate( 202, 1153 ) rotate( 450 )" d="M3 6C4.65685 6 6 4.65685 6 3C6 1.34315 4.65685 0 3 0C1.34315 0 0 1.34315 0 3C0 4.65685 1.34315 6 3 6Z" fill="#4d9ef6"/><path transform="translate( 295, 1150 ) rotate( 450 )" d="M5.22123 0.365167L0.258049 6.22653C-0.327404 6.91793 0.147757 8 1.03682 8H10.9632C11.8522 8 12.3274 6.91794 11.742 6.22653L6.77877 0.365167C6.36649 -0.121722 5.63351 -0.121723 5.22123 0.365167Z" fill="#4d9ef6"/></g></g><g><g transform="translate( 110, 476 )"><circle r="13" cx="0" cy="0" fill="#4D9EF6"/><g transform="translate( -12, -12 )"><svg width="24" height="24" fill="none" viewBox="0 0 24 24" id="svgSk0lmzvj6ca" xmlns="http://www.w3.org/2000/svg">
        <g>
            <path d="M12 21a9 9 0 1 0 0-18 9 9 0 0 0 0 18z" fill="#55D45B"/>
            <path fill-rule="evenodd" clip-rule="evenodd" d="M17.707 9.707L11.5 15.914l-4.207-4.207 1.414-1.414 2.793 2.793 4.793-4.793 1.414 1.414z" fill="#fff"/>
        </g>
    <desc>Created with Snap</desc><defs/></svg></g></g><g transform="translate( 220, 408 )"><circle r="13" cx="0" cy="0" fill="#4d9ef6"/><g transform="translate( -12, -12 )"><svg width="24" height="24" fill="none" viewBox="0 0 24 24" id="svgSk0lmzvj6cg" xmlns="http://www.w3.org/2000/svg">
        <g>
            <path d="M12 21a9 9 0 1 0 0-18 9 9 0 0 0 0 18z" fill="#FD6764"/>
            <path d="M12 10.546L9.455 8 8 9.455 10.546 12 8 14.546 9.455 16 12 13.454 14.546 16 16 14.546 13.454 12 16 9.455 14.546 8 12 10.546z" fill="#fff"/>
        </g>
    <desc>Created with Snap</desc><defs/></svg></g></g><g transform="translate( 220, 748 )"><circle r="13" cx="0" cy="0" fill="#4d9ef6"/><g transform="translate( -12, -12 )"><svg width="24" height="24" fill="none" viewBox="0 0 24 24" id="svgSk0lmzvj6cm" xmlns="http://www.w3.org/2000/svg">
        <g>
            <path d="M12 21a9 9 0 1 0 0-18 9 9 0 0 0 0 18z" fill="#FD6764"/>
            <path d="M12 10.546L9.455 8 8 9.455 10.546 12 8 14.546 9.455 16 12 13.454 14.546 16 16 14.546 13.454 12 16 9.455 14.546 8 12 10.546z" fill="#fff"/>
        </g>
    <desc>Created with Snap</desc><defs/></svg></g></g><g transform="translate( 660, 952 )"><circle r="13" cx="0" cy="0" fill="#4d9ef6"/><g transform="translate( -12, -12 )"><svg width="24" height="24" fill="none" viewBox="0 0 24 24" id="svgSk0lmzvj6cy" xmlns="http://www.w3.org/2000/svg">
        <g>
            <path d="M12 21a9 9 0 1 0 0-18 9 9 0 0 0 0 18z" fill="#55D45B"/>
            <path fill-rule="evenodd" clip-rule="evenodd" d="M17.707 9.707L11.5 15.914l-4.207-4.207 1.414-1.414 2.793 2.793 4.793-4.793 1.414 1.414z" fill="#fff"/>
        </g>
    <desc>Created with Snap</desc><defs/></svg></g></g></g></g></g></svg>